{
    "asset" : {
        "generator" : "Khronos glTF Blender I/O v0.9.36",
        "version" : "2.0"
    },
    "scene" : 0,
    "scenes" : [
        {
            "extras" : {
                "blenderkitUI" : {
                    "assetbar_on" : 0,
                    "turn_off" : 0
                },
                "blenderkit_mat" : {
                    "report" : ""
                },
                "uuid" : "c3d4703c-4fb2-4aab-abb9-7485cdc703f7"
            },
            "name" : "Scene",
            "nodes" : [
                4
            ]
        }
    ],
    "nodes" : [
        {
            "extras" : {},
            "mesh" : 0,
            "name" : "fishingpole_handle",
            "translation" : [
                0.09086275100708008,
                0.3186836242675781,
                0.05716928839683533
            ]
        },
        {
            "extras" : {},
            "mesh" : 1,
            "name" : "fishingpole_bobber",
            "translation" : [
                0,
                -1.2390518188476562,
                0
            ]
        },
        {
            "extras" : {},
            "mesh" : 2,
            "name" : "fishingpole_hook",
            "translation" : [
                0,
                -1.5423660278320312,
                0
            ]
        },
        {
            "children" : [
                1,
                2
            ],
            "extras" : {},
            "mesh" : 3,
            "name" : "fishingpole_line",
            "translation" : [
                0,
                1.926218032836914,
                0.3015318214893341
            ]
        },
        {
            "children" : [
                0,
                3
            ],
            "extras" : {},
            "mesh" : 4,
            "name" : "fishingpole_rod"
        }
    ],
    "materials" : [
        {
            "name" : "Black",
            "pbrMetallicRoughness" : {
                "baseColorFactor" : [
                    0.019794002175331116,
                    0.03207586705684662,
                    0.037408243864774704,
                    1
                ],
                "metallicFactor" : 0,
                "roughnessFactor" : 0.5
            }
        },
        {
            "name" : "Metal",
            "pbrMetallicRoughness" : {
                "baseColorFactor" : [
                    0.40126433968544006,
                    0.47849249839782715,
                    0.5173344612121582,
                    1
                ],
                "metallicFactor" : 0.20000000298023224,
                "roughnessFactor" : 0.30000001192092896
            }
        },
        {
            "name" : "White",
            "pbrMetallicRoughness" : {
                "baseColorFactor" : [
                    0.799102783203125,
                    0.799102783203125,
                    0.799102783203125,
                    1
                ],
                "metallicFactor" : 0,
                "roughnessFactor" : 0.4000000059604645
            }
        },
        {
            "name" : "RedDark",
            "pbrMetallicRoughness" : {
                "baseColorFactor" : [
                    0.7230429649353027,
                    0.019390203058719635,
                    0.08769338577985764,
                    1
                ],
                "metallicFactor" : 0,
                "roughnessFactor" : 0.5
            }
        },
        {
            "name" : "BrownDark",
            "pbrMetallicRoughness" : {
                "baseColorFactor" : [
                    0.32694560289382935,
                    0.10152623057365417,
                    0.05927089974284172,
                    1
                ],
                "metallicFactor" : 0,
                "roughnessFactor" : 0.4000000059604645
            }
        }
    ],
    "meshes" : [
        {
            "name" : "Cylinder.033",
            "primitives" : [
                {
                    "attributes" : {
                        "POSITION" : 0,
                        "NORMAL" : 1,
                        "TEXCOORD_0" : 2
                    },
                    "indices" : 3,
                    "material" : 0
                },
                {
                    "attributes" : {
                        "POSITION" : 4,
                        "NORMAL" : 5,
                        "TEXCOORD_0" : 6
                    },
                    "indices" : 7,
                    "material" : 1
                }
            ]
        },
        {
            "name" : "Sphere.004",
            "primitives" : [
                {
                    "attributes" : {
                        "POSITION" : 8,
                        "NORMAL" : 9,
                        "TEXCOORD_0" : 10
                    },
                    "indices" : 11,
                    "material" : 2
                },
                {
                    "attributes" : {
                        "POSITION" : 12,
                        "NORMAL" : 13,
                        "TEXCOORD_0" : 14
                    },
                    "indices" : 15,
                    "material" : 3
                }
            ]
        },
        {
            "name" : "BezierCurve.008",
            "primitives" : [
                {
                    "attributes" : {
                        "POSITION" : 16,
                        "NORMAL" : 17,
                        "TEXCOORD_0" : 18
                    },
                    "indices" : 19,
                    "material" : 1
                }
            ]
        },
        {
            "name" : "Cube.106",
            "primitives" : [
                {
                    "attributes" : {
                        "POSITION" : 20,
                        "NORMAL" : 21,
                        "TEXCOORD_0" : 22
                    },
                    "indices" : 23,
                    "material" : 2
                }
            ]
        },
        {
            "name" : "Cylinder.032",
            "primitives" : [
                {
                    "attributes" : {
                        "POSITION" : 24,
                        "NORMAL" : 25,
                        "TEXCOORD_0" : 26
                    },
                    "indices" : 27,
                    "material" : 4
                },
                {
                    "attributes" : {
                        "POSITION" : 28,
                        "NORMAL" : 29,
                        "TEXCOORD_0" : 30
                    },
                    "indices" : 31,
                    "material" : 0
                },
                {
                    "attributes" : {
                        "POSITION" : 32,
                        "NORMAL" : 33,
                        "TEXCOORD_0" : 34
                    },
                    "indices" : 35,
                    "material" : 1
                },
                {
                    "attributes" : {
                        "POSITION" : 36,
                        "NORMAL" : 37,
                        "TEXCOORD_0" : 38
                    },
                    "indices" : 39,
                    "material" : 2
                }
            ]
        }
    ],
    "accessors" : [
        {
            "bufferView" : 0,
            "componentType" : 5126,
            "count" : 70,
            "max" : [
                0.16207200288772583,
                0.044591933488845825,
                -0.1221136599779129
            ],
            "min" : [
                0.06993924826383591,
                -0.04459211230278015,
                -0.21588735282421112
            ],
            "type" : "VEC3"
        },
        {
            "bufferView" : 1,
            "componentType" : 5126,
            "count" : 70,
            "type" : "VEC3"
        },
        {
            "bufferView" : 2,
            "componentType" : 5126,
            "count" : 70,
            "type" : "VEC2"
        },
        {
            "bufferView" : 3,
            "componentType" : 5123,
            "count" : 264,
            "type" : "SCALAR"
        },
        {
            "bufferView" : 4,
            "componentType" : 5126,
            "count" : 89,
            "max" : [
                0.0699392706155777,
                0.020707355812191963,
                0.0217730775475502
            ],
            "min" : [
                -0.021773023530840874,
                -0.02070733904838562,
                -0.19077353179454803
            ],
            "type" : "VEC3"
        },
        {
            "bufferView" : 5,
            "componentType" : 5126,
            "count" : 89,
            "type" : "VEC3"
        },
        {
            "bufferView" : 6,
            "componentType" : 5126,
            "count" : 89,
            "type" : "VEC2"
        },
        {
            "bufferView" : 7,
            "componentType" : 5123,
            "count" : 300,
            "type" : "SCALAR"
        },
        {
            "bufferView" : 8,
            "componentType" : 5126,
            "count" : 70,
            "max" : [
                0.0986458957195282,
                0.09775621443986893,
                0.098645880818367
            ],
            "min" : [
                -0.098645880818367,
                0.008093330077826977,
                -0.0986458957195282
            ],
            "type" : "VEC3"
        },
        {
            "bufferView" : 9,
            "componentType" : 5126,
            "count" : 70,
            "type" : "VEC3"
        },
        {
            "bufferView" : 10,
            "componentType" : 5126,
            "count" : 70,
            "type" : "VEC2"
        },
        {
            "bufferView" : 11,
            "componentType" : 5123,
            "count" : 288,
            "type" : "SCALAR"
        },
        {
            "bufferView" : 12,
            "componentType" : 5126,
            "count" : 384,
            "max" : [
                0.10891961306333542,
                0.14506004750728607,
                0.10891959071159363
            ],
            "min" : [
                -0.10891959816217422,
                -0.10025578737258911,
                -0.10891961306333542
            ],
            "type" : "VEC3"
        },
        {
            "bufferView" : 13,
            "componentType" : 5126,
            "count" : 384,
            "type" : "VEC3"
        },
        {
            "bufferView" : 14,
            "componentType" : 5126,
            "count" : 384,
            "type" : "VEC2"
        },
        {
            "bufferView" : 15,
            "componentType" : 5123,
            "count" : 864,
            "type" : "SCALAR"
        },
        {
            "bufferView" : 16,
            "componentType" : 5126,
            "count" : 413,
            "max" : [
                0.08491111546754837,
                0.04606997221708298,
                0.01820966601371765
            ],
            "min" : [
                -0.09471867233514786,
                -0.33371853828430176,
                -0.01820966601371765
            ],
            "type" : "VEC3"
        },
        {
            "bufferView" : 17,
            "componentType" : 5126,
            "count" : 413,
            "type" : "VEC3"
        },
        {
            "bufferView" : 18,
            "componentType" : 5126,
            "count" : 413,
            "type" : "VEC2"
        },
        {
            "bufferView" : 19,
            "componentType" : 5123,
            "count" : 1344,
            "type" : "SCALAR"
        },
        {
            "bufferView" : 20,
            "componentType" : 5126,
            "count" : 24,
            "max" : [
                0.007201832719147205,
                0.009999990463256836,
                0.007201832719147205
            ],
            "min" : [
                -0.007201832719147205,
                -1.5130987167358398,
                -0.007201832719147205
            ],
            "type" : "VEC3"
        },
        {
            "bufferView" : 21,
            "componentType" : 5126,
            "count" : 24,
            "type" : "VEC3"
        },
        {
            "bufferView" : 22,
            "componentType" : 5126,
            "count" : 24,
            "type" : "VEC2"
        },
        {
            "bufferView" : 23,
            "componentType" : 5123,
            "count" : 36,
            "type" : "SCALAR"
        },
        {
            "bufferView" : 24,
            "componentType" : 5126,
            "count" : 547,
            "max" : [
                0.06897003203630447,
                1.956929087638855,
                0.32532182335853577
            ],
            "min" : [
                -0.06897038966417313,
                -0.13932979106903076,
                -0.11151082068681717
            ],
            "type" : "VEC3"
        },
        {
            "bufferView" : 25,
            "componentType" : 5126,
            "count" : 547,
            "type" : "VEC3"
        },
        {
            "bufferView" : 26,
            "componentType" : 5126,
            "count" : 547,
            "type" : "VEC2"
        },
        {
            "bufferView" : 27,
            "componentType" : 5123,
            "count" : 1500,
            "type" : "SCALAR"
        },
        {
            "bufferView" : 28,
            "componentType" : 5126,
            "count" : 34,
            "max" : [
                0.04938602074980736,
                0.40994226932525635,
                0.14842921495437622
            ],
            "min" : [
                -0.0493864007294178,
                0.22742487490177155,
                -0.03408835083246231
            ],
            "type" : "VEC3"
        },
        {
            "bufferView" : 29,
            "componentType" : 5126,
            "count" : 34,
            "type" : "VEC3"
        },
        {
            "bufferView" : 30,
            "componentType" : 5126,
            "count" : 34,
            "type" : "VEC2"
        },
        {
            "bufferView" : 31,
            "componentType" : 5123,
            "count" : 96,
            "type" : "SCALAR"
        },
        {
            "bufferView" : 32,
            "componentType" : 5126,
            "count" : 901,
            "max" : [
                0.09069150686264038,
                1.8248494863510132,
                0.25530001521110535
            ],
            "min" : [
                -0.09069185703992844,
                0.20884667336940765,
                -0.11957123875617981
            ],
            "type" : "VEC3"
        },
        {
            "bufferView" : 33,
            "componentType" : 5126,
            "count" : 901,
            "type" : "VEC3"
        },
        {
            "bufferView" : 34,
            "componentType" : 5126,
            "count" : 901,
            "type" : "VEC2"
        },
        {
            "bufferView" : 35,
            "componentType" : 5123,
            "count" : 1932,
            "type" : "SCALAR"
        },
        {
            "bufferView" : 36,
            "componentType" : 5126,
            "count" : 220,
            "max" : [
                0.008660237304866314,
                1.8960038423538208,
                0.30212873220443726
            ],
            "min" : [
                -0.008660294115543365,
                0.29992300271987915,
                -0.0376998633146286
            ],
            "type" : "VEC3"
        },
        {
            "bufferView" : 37,
            "componentType" : 5126,
            "count" : 220,
            "type" : "VEC3"
        },
        {
            "bufferView" : 38,
            "componentType" : 5126,
            "count" : 220,
            "type" : "VEC2"
        },
        {
            "bufferView" : 39,
            "componentType" : 5123,
            "count" : 576,
            "type" : "SCALAR"
        }
    ],
    "bufferViews" : [
        {
            "buffer" : 0,
            "byteLength" : 840,
            "byteOffset" : 0
        },
        {
            "buffer" : 0,
            "byteLength" : 840,
            "byteOffset" : 840
        },
        {
            "buffer" : 0,
            "byteLength" : 560,
            "byteOffset" : 1680
        },
        {
            "buffer" : 0,
            "byteLength" : 528,
            "byteOffset" : 2240
        },
        {
            "buffer" : 0,
            "byteLength" : 1068,
            "byteOffset" : 2768
        },
        {
            "buffer" : 0,
            "byteLength" : 1068,
            "byteOffset" : 3836
        },
        {
            "buffer" : 0,
            "byteLength" : 712,
            "byteOffset" : 4904
        },
        {
            "buffer" : 0,
            "byteLength" : 600,
            "byteOffset" : 5616
        },
        {
            "buffer" : 0,
            "byteLength" : 840,
            "byteOffset" : 6216
        },
        {
            "buffer" : 0,
            "byteLength" : 840,
            "byteOffset" : 7056
        },
        {
            "buffer" : 0,
            "byteLength" : 560,
            "byteOffset" : 7896
        },
        {
            "buffer" : 0,
            "byteLength" : 576,
            "byteOffset" : 8456
        },
        {
            "buffer" : 0,
            "byteLength" : 4608,
            "byteOffset" : 9032
        },
        {
            "buffer" : 0,
            "byteLength" : 4608,
            "byteOffset" : 13640
        },
        {
            "buffer" : 0,
            "byteLength" : 3072,
            "byteOffset" : 18248
        },
        {
            "buffer" : 0,
            "byteLength" : 1728,
            "byteOffset" : 21320
        },
        {
            "buffer" : 0,
            "byteLength" : 4956,
            "byteOffset" : 23048
        },
        {
            "buffer" : 0,
            "byteLength" : 4956,
            "byteOffset" : 28004
        },
        {
            "buffer" : 0,
            "byteLength" : 3304,
            "byteOffset" : 32960
        },
        {
            "buffer" : 0,
            "byteLength" : 2688,
            "byteOffset" : 36264
        },
        {
            "buffer" : 0,
            "byteLength" : 288,
            "byteOffset" : 38952
        },
        {
            "buffer" : 0,
            "byteLength" : 288,
            "byteOffset" : 39240
        },
        {
            "buffer" : 0,
            "byteLength" : 192,
            "byteOffset" : 39528
        },
        {
            "buffer" : 0,
            "byteLength" : 72,
            "byteOffset" : 39720
        },
        {
            "buffer" : 0,
            "byteLength" : 6564,
            "byteOffset" : 39792
        },
        {
            "buffer" : 0,
            "byteLength" : 6564,
            "byteOffset" : 46356
        },
        {
            "buffer" : 0,
            "byteLength" : 4376,
            "byteOffset" : 52920
        },
        {
            "buffer" : 0,
            "byteLength" : 3000,
            "byteOffset" : 57296
        },
        {
            "buffer" : 0,
            "byteLength" : 408,
            "byteOffset" : 60296
        },
        {
            "buffer" : 0,
            "byteLength" : 408,
            "byteOffset" : 60704
        },
        {
            "buffer" : 0,
            "byteLength" : 272,
            "byteOffset" : 61112
        },
        {
            "buffer" : 0,
            "byteLength" : 192,
            "byteOffset" : 61384
        },
        {
            "buffer" : 0,
            "byteLength" : 10812,
            "byteOffset" : 61576
        },
        {
            "buffer" : 0,
            "byteLength" : 10812,
            "byteOffset" : 72388
        },
        {
            "buffer" : 0,
            "byteLength" : 7208,
            "byteOffset" : 83200
        },
        {
            "buffer" : 0,
            "byteLength" : 3864,
            "byteOffset" : 90408
        },
        {
            "buffer" : 0,
            "byteLength" : 2640,
            "byteOffset" : 94272
        },
        {
            "buffer" : 0,
            "byteLength" : 2640,
            "byteOffset" : 96912
        },
        {
            "buffer" : 0,
            "byteLength" : 1760,
            "byteOffset" : 99552
        },
        {
            "buffer" : 0,
            "byteLength" : 1152,
            "byteOffset" : 101312
        }
    ],
    "buffers" : [
        {
            "byteLength" : 102464,
            "uri" : "data:application/octet-stream;base64,"
        }
    ]
}
