{
    "asset" : {
        "generator" : "Khronos glTF Blender I/O v0.9.36",
        "version" : "2.0"
    },
    "scene" : 0,
    "scenes" : [
        {
            "extras" : {
                "blenderkitUI" : {
                    "assetbar_on" : 0,
                    "turn_off" : 0
                },
                "uuid" : "1f638cbe-29d9-4a63-a6e1-7c4a796bb641",
                "glTF2ExportSettings" : {
                    "export_all_influences" : 0,
                    "export_animations" : 1,
                    "export_apply" : 1,
                    "export_cameras" : 0,
                    "export_colors" : 1,
                    "export_copyright" : "",
                    "export_current_frame" : 0,
                    "export_displacement" : 0,
                    "export_draco_mesh_compression_enable" : 0,
                    "export_draco_mesh_compression_level" : 6,
                    "export_draco_normal_quantization" : 10,
                    "export_draco_position_quantization" : 14,
                    "export_draco_texcoord_quantization" : 12,
                    "export_extras" : 1,
                    "export_force_sampling" : 0,
                    "export_format" : "GLTF_EMBEDDED",
                    "export_frame_range" : 1,
                    "export_frame_step" : 1,
                    "export_image_format" : "NAME",
                    "export_lights" : 0,
                    "export_materials" : 1,
                    "export_morph" : 1,
                    "export_morph_normal" : 1,
                    "export_morph_tangent" : 0,
                    "export_normals" : 1,
                    "export_selected" : 1,
                    "export_skins" : 1,
                    "export_tangents" : 0,
                    "export_texcoords" : 1,
                    "export_yup" : 1
                }
            },
            "name" : "Scene",
            "nodes" : [
                3
            ]
        }
    ],
    "nodes" : [
        {
            "mesh" : 0,
            "name" : "character_villager_female2_armLeft",
            "translation" : [
                0.20404052734375,
                0.6335561275482178,
                0
            ]
        },
        {
            "mesh" : 1,
            "name" : "character_villager_female2_armRight",
            "translation" : [
                -0.20404815673828125,
                0.6335561275482178,
                0
            ]
        },
        {
            "mesh" : 2,
            "name" : "character_villager_female2_head",
            "translation" : [
                0,
                0.7045400142669678,
                0
            ]
        },
        {
            "children" : [
                0,
                1,
                2
            ],
            "extras" : {},
            "mesh" : 3,
            "name" : "character_villager_female2_body"
        }
    ],
    "materials" : [
        {
            "name" : "Beige_Light",
            "pbrMetallicRoughness" : {
                "baseColorFactor" : [
                    0.7011020183563232,
                    0.6038275361061096,
                    0.5271153450012207,
                    1
                ],
                "metallicFactor" : 0,
                "roughnessFactor" : 0.5
            }
        },
        {
            "name" : "PinkLight",
            "pbrMetallicRoughness" : {
                "baseColorFactor" : [
                    0.9215819239616394,
                    0.5271151065826416,
                    0.33245164155960083,
                    1
                ],
                "metallicFactor" : 0,
                "roughnessFactor" : 0.5
            }
        },
        {
            "name" : "BrownDark",
            "pbrMetallicRoughness" : {
                "baseColorFactor" : [
                    0.32694560289382935,
                    0.10152623057365417,
                    0.05927089974284172,
                    1
                ],
                "metallicFactor" : 0,
                "roughnessFactor" : 0.4000000059604645
            }
        },
        {
            "name" : "Black",
            "pbrMetallicRoughness" : {
                "baseColorFactor" : [
                    0.019794002175331116,
                    0.03207586705684662,
                    0.037408243864774704,
                    1
                ],
                "metallicFactor" : 0,
                "roughnessFactor" : 0.5
            }
        },
        {
            "name" : "Brown",
            "pbrMetallicRoughness" : {
                "baseColorFactor" : [
                    0.5778115391731262,
                    0.23347531259059906,
                    0.11534765362739563,
                    1
                ],
                "metallicFactor" : 0,
                "roughnessFactor" : 0.5
            }
        },
        {
            "doubleSided" : true,
            "name" : "WoodDark",
            "pbrMetallicRoughness" : {
                "baseColorFactor" : [
                    0.15292620658874512,
                    0.08865558356046677,
                    0.07227186858654022,
                    1
                ],
                "metallicFactor" : 0,
                "roughnessFactor" : 0.4000000059604645
            }
        },
        {
            "name" : "Beige",
            "pbrMetallicRoughness" : {
                "baseColorFactor" : [
                    0.7029160857200623,
                    0.4253237545490265,
                    0.20689357817173004,
                    1
                ],
                "metallicFactor" : 0,
                "roughnessFactor" : 0.5
            }
        }
    ],
    "meshes" : [
        {
            "name" : "Cube.904",
            "primitives" : [
                {
                    "attributes" : {
                        "POSITION" : 0,
                        "NORMAL" : 1,
                        "TEXCOORD_0" : 2
                    },
                    "indices" : 3,
                    "material" : 0
                },
                {
                    "attributes" : {
                        "POSITION" : 4,
                        "NORMAL" : 5,
                        "TEXCOORD_0" : 6
                    },
                    "indices" : 7,
                    "material" : 1
                }
            ]
        },
        {
            "name" : "Cube.905",
            "primitives" : [
                {
                    "attributes" : {
                        "POSITION" : 8,
                        "NORMAL" : 9,
                        "TEXCOORD_0" : 10
                    },
                    "indices" : 11,
                    "material" : 1
                },
                {
                    "attributes" : {
                        "POSITION" : 12,
                        "NORMAL" : 13,
                        "TEXCOORD_0" : 14
                    },
                    "indices" : 15,
                    "material" : 0
                }
            ]
        },
        {
            "name" : "Cube.902",
            "primitives" : [
                {
                    "attributes" : {
                        "POSITION" : 16,
                        "NORMAL" : 17,
                        "TEXCOORD_0" : 18
                    },
                    "indices" : 19,
                    "material" : 1
                },
                {
                    "attributes" : {
                        "POSITION" : 20,
                        "NORMAL" : 21,
                        "TEXCOORD_0" : 22
                    },
                    "indices" : 23,
                    "material" : 2
                },
                {
                    "attributes" : {
                        "POSITION" : 24,
                        "NORMAL" : 25,
                        "TEXCOORD_0" : 26
                    },
                    "indices" : 27,
                    "material" : 3
                }
            ]
        },
        {
            "name" : "Cube.903",
            "primitives" : [
                {
                    "attributes" : {
                        "POSITION" : 28,
                        "NORMAL" : 29,
                        "TEXCOORD_0" : 30
                    },
                    "indices" : 31,
                    "material" : 4
                },
                {
                    "attributes" : {
                        "POSITION" : 32,
                        "NORMAL" : 33,
                        "TEXCOORD_0" : 34
                    },
                    "indices" : 35,
                    "material" : 5
                },
                {
                    "attributes" : {
                        "POSITION" : 36,
                        "NORMAL" : 37,
                        "TEXCOORD_0" : 38
                    },
                    "indices" : 39,
                    "material" : 6
                },
                {
                    "attributes" : {
                        "POSITION" : 40,
                        "NORMAL" : 41,
                        "TEXCOORD_0" : 42
                    },
                    "indices" : 43,
                    "material" : 0
                }
            ]
        }
    ],
    "accessors" : [
        {
            "bufferView" : 0,
            "componentType" : 5126,
            "count" : 243,
            "max" : [
                0.2634984254837036,
                0.09418356418609619,
                0.10419709980487823
            ],
            "min" : [
                -0.11533478647470474,
                -0.38146162033081055,
                -0.10419712215662003
            ],
            "type" : "VEC3"
        },
        {
            "bufferView" : 1,
            "componentType" : 5126,
            "count" : 243,
            "type" : "VEC3"
        },
        {
            "bufferView" : 2,
            "componentType" : 5126,
            "count" : 243,
            "type" : "VEC2"
        },
        {
            "bufferView" : 3,
            "componentType" : 5123,
            "count" : 723,
            "type" : "SCALAR"
        },
        {
            "bufferView" : 4,
            "componentType" : 5126,
            "count" : 145,
            "max" : [
                0.2632713317871094,
                -0.38145896792411804,
                0.0902712419629097
            ],
            "min" : [
                0.12564954161643982,
                -0.47665560245513916,
                -0.09027118980884552
            ],
            "type" : "VEC3"
        },
        {
            "bufferView" : 5,
            "componentType" : 5126,
            "count" : 145,
            "type" : "VEC3"
        },
        {
            "bufferView" : 6,
            "componentType" : 5126,
            "count" : 145,
            "type" : "VEC2"
        },
        {
            "bufferView" : 7,
            "componentType" : 5123,
            "count" : 561,
            "type" : "SCALAR"
        },
        {
            "bufferView" : 8,
            "componentType" : 5126,
            "count" : 156,
            "max" : [
                -0.12564924359321594,
                -0.38145890831947327,
                0.0902712345123291
            ],
            "min" : [
                -0.2632710933685303,
                -0.4766555428504944,
                -0.09027119725942612
            ],
            "type" : "VEC3"
        },
        {
            "bufferView" : 9,
            "componentType" : 5126,
            "count" : 156,
            "type" : "VEC3"
        },
        {
            "bufferView" : 10,
            "componentType" : 5126,
            "count" : 156,
            "type" : "VEC2"
        },
        {
            "bufferView" : 11,
            "componentType" : 5123,
            "count" : 561,
            "type" : "SCALAR"
        },
        {
            "bufferView" : 12,
            "componentType" : 5126,
            "count" : 255,
            "max" : [
                0.11533510684967041,
                0.09418362379074097,
                0.10419710725545883
            ],
            "min" : [
                -0.2634981870651245,
                -0.38146156072616577,
                -0.10419710725545883
            ],
            "type" : "VEC3"
        },
        {
            "bufferView" : 13,
            "componentType" : 5126,
            "count" : 255,
            "type" : "VEC3"
        },
        {
            "bufferView" : 14,
            "componentType" : 5126,
            "count" : 255,
            "type" : "VEC2"
        },
        {
            "bufferView" : 15,
            "componentType" : 5123,
            "count" : 723,
            "type" : "SCALAR"
        },
        {
            "bufferView" : 16,
            "componentType" : 5126,
            "count" : 710,
            "max" : [
                0.5877276062965393,
                0.9703007936477661,
                0.5900489687919617
            ],
            "min" : [
                -0.5877274870872498,
                0,
                -0.49049949645996094
            ],
            "type" : "VEC3"
        },
        {
            "bufferView" : 17,
            "componentType" : 5126,
            "count" : 710,
            "type" : "VEC3"
        },
        {
            "bufferView" : 18,
            "componentType" : 5126,
            "count" : 710,
            "type" : "VEC2"
        },
        {
            "bufferView" : 19,
            "componentType" : 5123,
            "count" : 2586,
            "type" : "SCALAR"
        },
        {
            "bufferView" : 20,
            "componentType" : 5126,
            "count" : 885,
            "max" : [
                0.5708112716674805,
                1.0726138353347778,
                0.5418456196784973
            ],
            "min" : [
                -0.570810079574585,
                0.005798421800136566,
                -0.5507819652557373
            ],
            "type" : "VEC3"
        },
        {
            "bufferView" : 21,
            "componentType" : 5126,
            "count" : 885,
            "type" : "VEC3"
        },
        {
            "bufferView" : 22,
            "componentType" : 5126,
            "count" : 885,
            "type" : "VEC2"
        },
        {
            "bufferView" : 23,
            "componentType" : 5123,
            "count" : 3798,
            "type" : "SCALAR"
        },
        {
            "bufferView" : 24,
            "componentType" : 5126,
            "count" : 126,
            "max" : [
                0.2962771952152252,
                0.4932206869125366,
                0.4798523187637329
            ],
            "min" : [
                -0.2962771952152252,
                0.35582518577575684,
                0.3613807260990143
            ],
            "type" : "VEC3"
        },
        {
            "bufferView" : 25,
            "componentType" : 5126,
            "count" : 126,
            "type" : "VEC3"
        },
        {
            "bufferView" : 26,
            "componentType" : 5126,
            "count" : 126,
            "type" : "VEC2"
        },
        {
            "bufferView" : 27,
            "componentType" : 5123,
            "count" : 426,
            "type" : "SCALAR"
        },
        {
            "bufferView" : 28,
            "componentType" : 5126,
            "count" : 363,
            "max" : [
                0.384467214345932,
                0.6794919967651367,
                0.38447046279907227
            ],
            "min" : [
                -0.38447386026382446,
                0.032870493829250336,
                -0.3844705820083618
            ],
            "type" : "VEC3"
        },
        {
            "bufferView" : 29,
            "componentType" : 5126,
            "count" : 363,
            "type" : "VEC3"
        },
        {
            "bufferView" : 30,
            "componentType" : 5126,
            "count" : 363,
            "type" : "VEC2"
        },
        {
            "bufferView" : 31,
            "componentType" : 5123,
            "count" : 1206,
            "type" : "SCALAR"
        },
        {
            "bufferView" : 32,
            "componentType" : 5126,
            "count" : 346,
            "max" : [
                0.30310875177383423,
                0.46875661611557007,
                0.30310869216918945
            ],
            "min" : [
                -0.30310872197151184,
                -2.2351741790771484e-08,
                -0.303108811378479
            ],
            "type" : "VEC3"
        },
        {
            "bufferView" : 33,
            "componentType" : 5126,
            "count" : 346,
            "type" : "VEC3"
        },
        {
            "bufferView" : 34,
            "componentType" : 5126,
            "count" : 346,
            "type" : "VEC2"
        },
        {
            "bufferView" : 35,
            "componentType" : 5123,
            "count" : 792,
            "type" : "SCALAR"
        },
        {
            "bufferView" : 36,
            "componentType" : 5126,
            "count" : 114,
            "max" : [
                0.2651243805885315,
                0.3896557092666626,
                0.39930006861686707
            ],
            "min" : [
                -0.2651292085647583,
                0.11648828536272049,
                -0.36639732122421265
            ],
            "type" : "VEC3"
        },
        {
            "bufferView" : 37,
            "componentType" : 5126,
            "count" : 114,
            "type" : "VEC3"
        },
        {
            "bufferView" : 38,
            "componentType" : 5126,
            "count" : 114,
            "type" : "VEC2"
        },
        {
            "bufferView" : 39,
            "componentType" : 5123,
            "count" : 372,
            "type" : "SCALAR"
        },
        {
            "bufferView" : 40,
            "componentType" : 5126,
            "count" : 342,
            "max" : [
                0.1884070783853531,
                0.7425573468208313,
                0.37209880352020264
            ],
            "min" : [
                -0.21682462096214294,
                0.19619818031787872,
                -0.17281080782413483
            ],
            "type" : "VEC3"
        },
        {
            "bufferView" : 41,
            "componentType" : 5126,
            "count" : 342,
            "type" : "VEC3"
        },
        {
            "bufferView" : 42,
            "componentType" : 5126,
            "count" : 342,
            "type" : "VEC2"
        },
        {
            "bufferView" : 43,
            "componentType" : 5123,
            "count" : 996,
            "type" : "SCALAR"
        }
    ],
    "bufferViews" : [
        {
            "buffer" : 0,
            "byteLength" : 2916,
            "byteOffset" : 0
        },
        {
            "buffer" : 0,
            "byteLength" : 2916,
            "byteOffset" : 2916
        },
        {
            "buffer" : 0,
            "byteLength" : 1944,
            "byteOffset" : 5832
        },
        {
            "buffer" : 0,
            "byteLength" : 1446,
            "byteOffset" : 7776
        },
        {
            "buffer" : 0,
            "byteLength" : 1740,
            "byteOffset" : 9224
        },
        {
            "buffer" : 0,
            "byteLength" : 1740,
            "byteOffset" : 10964
        },
        {
            "buffer" : 0,
            "byteLength" : 1160,
            "byteOffset" : 12704
        },
        {
            "buffer" : 0,
            "byteLength" : 1122,
            "byteOffset" : 13864
        },
        {
            "buffer" : 0,
            "byteLength" : 1872,
            "byteOffset" : 14988
        },
        {
            "buffer" : 0,
            "byteLength" : 1872,
            "byteOffset" : 16860
        },
        {
            "buffer" : 0,
            "byteLength" : 1248,
            "byteOffset" : 18732
        },
        {
            "buffer" : 0,
            "byteLength" : 1122,
            "byteOffset" : 19980
        },
        {
            "buffer" : 0,
            "byteLength" : 3060,
            "byteOffset" : 21104
        },
        {
            "buffer" : 0,
            "byteLength" : 3060,
            "byteOffset" : 24164
        },
        {
            "buffer" : 0,
            "byteLength" : 2040,
            "byteOffset" : 27224
        },
        {
            "buffer" : 0,
            "byteLength" : 1446,
            "byteOffset" : 29264
        },
        {
            "buffer" : 0,
            "byteLength" : 8520,
            "byteOffset" : 30712
        },
        {
            "buffer" : 0,
            "byteLength" : 8520,
            "byteOffset" : 39232
        },
        {
            "buffer" : 0,
            "byteLength" : 5680,
            "byteOffset" : 47752
        },
        {
            "buffer" : 0,
            "byteLength" : 5172,
            "byteOffset" : 53432
        },
        {
            "buffer" : 0,
            "byteLength" : 10620,
            "byteOffset" : 58604
        },
        {
            "buffer" : 0,
            "byteLength" : 10620,
            "byteOffset" : 69224
        },
        {
            "buffer" : 0,
            "byteLength" : 7080,
            "byteOffset" : 79844
        },
        {
            "buffer" : 0,
            "byteLength" : 7596,
            "byteOffset" : 86924
        },
        {
            "buffer" : 0,
            "byteLength" : 1512,
            "byteOffset" : 94520
        },
        {
            "buffer" : 0,
            "byteLength" : 1512,
            "byteOffset" : 96032
        },
        {
            "buffer" : 0,
            "byteLength" : 1008,
            "byteOffset" : 97544
        },
        {
            "buffer" : 0,
            "byteLength" : 852,
            "byteOffset" : 98552
        },
        {
            "buffer" : 0,
            "byteLength" : 4356,
            "byteOffset" : 99404
        },
        {
            "buffer" : 0,
            "byteLength" : 4356,
            "byteOffset" : 103760
        },
        {
            "buffer" : 0,
            "byteLength" : 2904,
            "byteOffset" : 108116
        },
        {
            "buffer" : 0,
            "byteLength" : 2412,
            "byteOffset" : 111020
        },
        {
            "buffer" : 0,
            "byteLength" : 4152,
            "byteOffset" : 113432
        },
        {
            "buffer" : 0,
            "byteLength" : 4152,
            "byteOffset" : 117584
        },
        {
            "buffer" : 0,
            "byteLength" : 2768,
            "byteOffset" : 121736
        },
        {
            "buffer" : 0,
            "byteLength" : 1584,
            "byteOffset" : 124504
        },
        {
            "buffer" : 0,
            "byteLength" : 1368,
            "byteOffset" : 126088
        },
        {
            "buffer" : 0,
            "byteLength" : 1368,
            "byteOffset" : 127456
        },
        {
            "buffer" : 0,
            "byteLength" : 912,
            "byteOffset" : 128824
        },
        {
            "buffer" : 0,
            "byteLength" : 744,
            "byteOffset" : 129736
        },
        {
            "buffer" : 0,
            "byteLength" : 4104,
            "byteOffset" : 130480
        },
        {
            "buffer" : 0,
            "byteLength" : 4104,
            "byteOffset" : 134584
        },
        {
            "buffer" : 0,
            "byteLength" : 2736,
            "byteOffset" : 138688
        },
        {
            "buffer" : 0,
            "byteLength" : 1992,
            "byteOffset" : 141424
        }
    ],
    "buffers" : [
        {
            "byteLength" : 143416,
            "uri" : "data:application/octet-stream;base64,"
        }
    ]
}
