{
    "asset" : {
        "generator" : "Khronos glTF Blender I/O v0.9.36",
        "version" : "2.0"
    },
    "scene" : 0,
    "scenes" : [
        {
            "extras" : {
                "blenderkitUI" : {
                    "assetbar_on" : 0,
                    "turn_off" : 0
                },
                "uuid" : "1f638cbe-29d9-4a63-a6e1-7c4a796bb641",
                "glTF2ExportSettings" : {
                    "export_all_influences" : 0,
                    "export_animations" : 1,
                    "export_apply" : 1,
                    "export_cameras" : 0,
                    "export_colors" : 1,
                    "export_copyright" : "",
                    "export_current_frame" : 0,
                    "export_displacement" : 0,
                    "export_draco_mesh_compression_enable" : 0,
                    "export_draco_mesh_compression_level" : 6,
                    "export_draco_normal_quantization" : 10,
                    "export_draco_position_quantization" : 14,
                    "export_draco_texcoord_quantization" : 12,
                    "export_extras" : 1,
                    "export_force_sampling" : 0,
                    "export_format" : "GLTF_EMBEDDED",
                    "export_frame_range" : 1,
                    "export_frame_step" : 1,
                    "export_image_format" : "NAME",
                    "export_lights" : 0,
                    "export_materials" : 1,
                    "export_morph" : 1,
                    "export_morph_normal" : 1,
                    "export_morph_tangent" : 0,
                    "export_normals" : 1,
                    "export_selected" : 1,
                    "export_skins" : 1,
                    "export_tangents" : 0,
                    "export_texcoords" : 1,
                    "export_yup" : 1
                }
            },
            "name" : "Scene",
            "nodes" : [
                3
            ]
        }
    ],
    "nodes" : [
        {
            "mesh" : 0,
            "name" : "character_villager_female1_armLeft",
            "translation" : [
                0.20404052734375,
                0.6335570812225342,
                0
            ]
        },
        {
            "mesh" : 1,
            "name" : "character_villager_female1_armRight",
            "translation" : [
                -0.20404815673828125,
                0.6335570812225342,
                0
            ]
        },
        {
            "mesh" : 2,
            "name" : "character_villager_female1_head",
            "translation" : [
                0,
                0.7045390605926514,
                0
            ]
        },
        {
            "children" : [
                0,
                1,
                2
            ],
            "extras" : {},
            "mesh" : 3,
            "name" : "character_villager_female1_body"
        }
    ],
    "materials" : [
        {
            "name" : "Beige_Light",
            "pbrMetallicRoughness" : {
                "baseColorFactor" : [
                    0.7011020183563232,
                    0.6038275361061096,
                    0.5271153450012207,
                    1
                ],
                "metallicFactor" : 0,
                "roughnessFactor" : 0.5
            }
        },
        {
            "name" : "PinkLight",
            "pbrMetallicRoughness" : {
                "baseColorFactor" : [
                    0.9215819239616394,
                    0.5271151065826416,
                    0.33245164155960083,
                    1
                ],
                "metallicFactor" : 0,
                "roughnessFactor" : 0.5
            }
        },
        {
            "name" : "Beige",
            "pbrMetallicRoughness" : {
                "baseColorFactor" : [
                    0.7029160857200623,
                    0.4253237545490265,
                    0.20689357817173004,
                    1
                ],
                "metallicFactor" : 0,
                "roughnessFactor" : 0.5
            }
        },
        {
            "name" : "Black",
            "pbrMetallicRoughness" : {
                "baseColorFactor" : [
                    0.019794002175331116,
                    0.03207586705684662,
                    0.037408243864774704,
                    1
                ],
                "metallicFactor" : 0,
                "roughnessFactor" : 0.5
            }
        },
        {
            "doubleSided" : true,
            "name" : "WoodDark",
            "pbrMetallicRoughness" : {
                "baseColorFactor" : [
                    0.15292620658874512,
                    0.08865558356046677,
                    0.07227186858654022,
                    1
                ],
                "metallicFactor" : 0,
                "roughnessFactor" : 0.4000000059604645
            }
        },
        {
            "name" : "OliveGreen",
            "pbrMetallicRoughness" : {
                "baseColorFactor" : [
                    0.13013650476932526,
                    0.1778884381055832,
                    0.0368894562125206,
                    1
                ],
                "metallicFactor" : 0,
                "roughnessFactor" : 0.4000000059604645
            }
        }
    ],
    "meshes" : [
        {
            "name" : "Cube.934",
            "primitives" : [
                {
                    "attributes" : {
                        "POSITION" : 0,
                        "NORMAL" : 1,
                        "TEXCOORD_0" : 2
                    },
                    "indices" : 3,
                    "material" : 0
                },
                {
                    "attributes" : {
                        "POSITION" : 4,
                        "NORMAL" : 5,
                        "TEXCOORD_0" : 6
                    },
                    "indices" : 7,
                    "material" : 1
                }
            ]
        },
        {
            "name" : "Cube.935",
            "primitives" : [
                {
                    "attributes" : {
                        "POSITION" : 8,
                        "NORMAL" : 9,
                        "TEXCOORD_0" : 10
                    },
                    "indices" : 11,
                    "material" : 1
                },
                {
                    "attributes" : {
                        "POSITION" : 12,
                        "NORMAL" : 13,
                        "TEXCOORD_0" : 14
                    },
                    "indices" : 15,
                    "material" : 0
                }
            ]
        },
        {
            "name" : "Cube.932",
            "primitives" : [
                {
                    "attributes" : {
                        "POSITION" : 16,
                        "NORMAL" : 17,
                        "TEXCOORD_0" : 18
                    },
                    "indices" : 19,
                    "material" : 1
                },
                {
                    "attributes" : {
                        "POSITION" : 20,
                        "NORMAL" : 21,
                        "TEXCOORD_0" : 22
                    },
                    "indices" : 23,
                    "material" : 2
                },
                {
                    "attributes" : {
                        "POSITION" : 24,
                        "NORMAL" : 25,
                        "TEXCOORD_0" : 26
                    },
                    "indices" : 27,
                    "material" : 3
                },
                {
                    "attributes" : {
                        "POSITION" : 28,
                        "NORMAL" : 29,
                        "TEXCOORD_0" : 30
                    },
                    "indices" : 31,
                    "material" : 4
                }
            ]
        },
        {
            "name" : "Cube.933",
            "primitives" : [
                {
                    "attributes" : {
                        "POSITION" : 32,
                        "NORMAL" : 33,
                        "TEXCOORD_0" : 34
                    },
                    "indices" : 35,
                    "material" : 5
                },
                {
                    "attributes" : {
                        "POSITION" : 36,
                        "NORMAL" : 37,
                        "TEXCOORD_0" : 38
                    },
                    "indices" : 39,
                    "material" : 4
                },
                {
                    "attributes" : {
                        "POSITION" : 40,
                        "NORMAL" : 41,
                        "TEXCOORD_0" : 42
                    },
                    "indices" : 43,
                    "material" : 0
                }
            ]
        }
    ],
    "accessors" : [
        {
            "bufferView" : 0,
            "componentType" : 5126,
            "count" : 243,
            "max" : [
                0.2634984254837036,
                0.09418356418609619,
                0.10419709980487823
            ],
            "min" : [
                -0.11533478647470474,
                -0.38146162033081055,
                -0.10419712215662003
            ],
            "type" : "VEC3"
        },
        {
            "bufferView" : 1,
            "componentType" : 5126,
            "count" : 243,
            "type" : "VEC3"
        },
        {
            "bufferView" : 2,
            "componentType" : 5126,
            "count" : 243,
            "type" : "VEC2"
        },
        {
            "bufferView" : 3,
            "componentType" : 5123,
            "count" : 723,
            "type" : "SCALAR"
        },
        {
            "bufferView" : 4,
            "componentType" : 5126,
            "count" : 145,
            "max" : [
                0.2632713317871094,
                -0.38145896792411804,
                0.0902712419629097
            ],
            "min" : [
                0.12564954161643982,
                -0.47665560245513916,
                -0.09027118980884552
            ],
            "type" : "VEC3"
        },
        {
            "bufferView" : 5,
            "componentType" : 5126,
            "count" : 145,
            "type" : "VEC3"
        },
        {
            "bufferView" : 6,
            "componentType" : 5126,
            "count" : 145,
            "type" : "VEC2"
        },
        {
            "bufferView" : 7,
            "componentType" : 5123,
            "count" : 561,
            "type" : "SCALAR"
        },
        {
            "bufferView" : 8,
            "componentType" : 5126,
            "count" : 156,
            "max" : [
                -0.12564924359321594,
                -0.38145890831947327,
                0.0902712345123291
            ],
            "min" : [
                -0.2632710933685303,
                -0.4766555428504944,
                -0.09027119725942612
            ],
            "type" : "VEC3"
        },
        {
            "bufferView" : 9,
            "componentType" : 5126,
            "count" : 156,
            "type" : "VEC3"
        },
        {
            "bufferView" : 10,
            "componentType" : 5126,
            "count" : 156,
            "type" : "VEC2"
        },
        {
            "bufferView" : 11,
            "componentType" : 5123,
            "count" : 561,
            "type" : "SCALAR"
        },
        {
            "bufferView" : 12,
            "componentType" : 5126,
            "count" : 255,
            "max" : [
                0.11533510684967041,
                0.09418362379074097,
                0.10419710725545883
            ],
            "min" : [
                -0.2634981870651245,
                -0.38146156072616577,
                -0.10419710725545883
            ],
            "type" : "VEC3"
        },
        {
            "bufferView" : 13,
            "componentType" : 5126,
            "count" : 255,
            "type" : "VEC3"
        },
        {
            "bufferView" : 14,
            "componentType" : 5126,
            "count" : 255,
            "type" : "VEC2"
        },
        {
            "bufferView" : 15,
            "componentType" : 5123,
            "count" : 723,
            "type" : "SCALAR"
        },
        {
            "bufferView" : 16,
            "componentType" : 5126,
            "count" : 515,
            "max" : [
                0.5877276062965393,
                0.8425403237342834,
                0.5643507242202759
            ],
            "min" : [
                -0.5877274870872498,
                0,
                -0.4330125153064728
            ],
            "type" : "VEC3"
        },
        {
            "bufferView" : 17,
            "componentType" : 5126,
            "count" : 515,
            "type" : "VEC3"
        },
        {
            "bufferView" : 18,
            "componentType" : 5126,
            "count" : 515,
            "type" : "VEC2"
        },
        {
            "bufferView" : 19,
            "componentType" : 5123,
            "count" : 1758,
            "type" : "SCALAR"
        },
        {
            "bufferView" : 20,
            "componentType" : 5126,
            "count" : 589,
            "max" : [
                0.536695122718811,
                1.0726135969161987,
                0.5324633121490479
            ],
            "min" : [
                -0.5366951823234558,
                -0.34272390604019165,
                -0.5556281805038452
            ],
            "type" : "VEC3"
        },
        {
            "bufferView" : 21,
            "componentType" : 5126,
            "count" : 589,
            "type" : "VEC3"
        },
        {
            "bufferView" : 22,
            "componentType" : 5126,
            "count" : 589,
            "type" : "VEC2"
        },
        {
            "bufferView" : 23,
            "componentType" : 5123,
            "count" : 2472,
            "type" : "SCALAR"
        },
        {
            "bufferView" : 24,
            "componentType" : 5126,
            "count" : 126,
            "max" : [
                0.3166520893573761,
                0.46941888332366943,
                0.480776846408844
            ],
            "min" : [
                -0.3166520893573761,
                0.35141730308532715,
                0.3605382740497589
            ],
            "type" : "VEC3"
        },
        {
            "bufferView" : 25,
            "componentType" : 5126,
            "count" : 126,
            "type" : "VEC3"
        },
        {
            "bufferView" : 26,
            "componentType" : 5126,
            "count" : 126,
            "type" : "VEC2"
        },
        {
            "bufferView" : 27,
            "componentType" : 5123,
            "count" : 426,
            "type" : "SCALAR"
        },
        {
            "bufferView" : 28,
            "componentType" : 5126,
            "count" : 66,
            "max" : [
                0.09913718700408936,
                0.058173324912786484,
                -0.3324476182460785
            ],
            "min" : [
                -0.09913729131221771,
                -0.04961688816547394,
                -0.45566219091415405
            ],
            "type" : "VEC3"
        },
        {
            "bufferView" : 29,
            "componentType" : 5126,
            "count" : 66,
            "type" : "VEC3"
        },
        {
            "bufferView" : 30,
            "componentType" : 5126,
            "count" : 66,
            "type" : "VEC2"
        },
        {
            "bufferView" : 31,
            "componentType" : 5123,
            "count" : 192,
            "type" : "SCALAR"
        },
        {
            "bufferView" : 32,
            "componentType" : 5126,
            "count" : 530,
            "max" : [
                0.39742597937583923,
                0.7769909501075745,
                0.38195085525512695
            ],
            "min" : [
                -0.39685332775115967,
                0.032865285873413086,
                -0.3869571089744568
            ],
            "type" : "VEC3"
        },
        {
            "bufferView" : 33,
            "componentType" : 5126,
            "count" : 530,
            "type" : "VEC3"
        },
        {
            "bufferView" : 34,
            "componentType" : 5126,
            "count" : 530,
            "type" : "VEC2"
        },
        {
            "bufferView" : 35,
            "componentType" : 5123,
            "count" : 1494,
            "type" : "SCALAR"
        },
        {
            "bufferView" : 36,
            "componentType" : 5126,
            "count" : 376,
            "max" : [
                0.30310875177383423,
                0.46747860312461853,
                0.309043824672699
            ],
            "min" : [
                -0.30310872197151184,
                -2.9802322387695312e-08,
                -0.3048180639743805
            ],
            "type" : "VEC3"
        },
        {
            "bufferView" : 37,
            "componentType" : 5126,
            "count" : 376,
            "type" : "VEC3"
        },
        {
            "bufferView" : 38,
            "componentType" : 5126,
            "count" : 376,
            "type" : "VEC2"
        },
        {
            "bufferView" : 39,
            "componentType" : 5123,
            "count" : 792,
            "type" : "SCALAR"
        },
        {
            "bufferView" : 40,
            "componentType" : 5126,
            "count" : 274,
            "max" : [
                0.27802133560180664,
                0.7325823903083801,
                0.3968954384326935
            ],
            "min" : [
                -0.27802136540412903,
                0.11293262243270874,
                -0.27584609389305115
            ],
            "type" : "VEC3"
        },
        {
            "bufferView" : 41,
            "componentType" : 5126,
            "count" : 274,
            "type" : "VEC3"
        },
        {
            "bufferView" : 42,
            "componentType" : 5126,
            "count" : 274,
            "type" : "VEC2"
        },
        {
            "bufferView" : 43,
            "componentType" : 5123,
            "count" : 840,
            "type" : "SCALAR"
        }
    ],
    "bufferViews" : [
        {
            "buffer" : 0,
            "byteLength" : 2916,
            "byteOffset" : 0
        },
        {
            "buffer" : 0,
            "byteLength" : 2916,
            "byteOffset" : 2916
        },
        {
            "buffer" : 0,
            "byteLength" : 1944,
            "byteOffset" : 5832
        },
        {
            "buffer" : 0,
            "byteLength" : 1446,
            "byteOffset" : 7776
        },
        {
            "buffer" : 0,
            "byteLength" : 1740,
            "byteOffset" : 9224
        },
        {
            "buffer" : 0,
            "byteLength" : 1740,
            "byteOffset" : 10964
        },
        {
            "buffer" : 0,
            "byteLength" : 1160,
            "byteOffset" : 12704
        },
        {
            "buffer" : 0,
            "byteLength" : 1122,
            "byteOffset" : 13864
        },
        {
            "buffer" : 0,
            "byteLength" : 1872,
            "byteOffset" : 14988
        },
        {
            "buffer" : 0,
            "byteLength" : 1872,
            "byteOffset" : 16860
        },
        {
            "buffer" : 0,
            "byteLength" : 1248,
            "byteOffset" : 18732
        },
        {
            "buffer" : 0,
            "byteLength" : 1122,
            "byteOffset" : 19980
        },
        {
            "buffer" : 0,
            "byteLength" : 3060,
            "byteOffset" : 21104
        },
        {
            "buffer" : 0,
            "byteLength" : 3060,
            "byteOffset" : 24164
        },
        {
            "buffer" : 0,
            "byteLength" : 2040,
            "byteOffset" : 27224
        },
        {
            "buffer" : 0,
            "byteLength" : 1446,
            "byteOffset" : 29264
        },
        {
            "buffer" : 0,
            "byteLength" : 6180,
            "byteOffset" : 30712
        },
        {
            "buffer" : 0,
            "byteLength" : 6180,
            "byteOffset" : 36892
        },
        {
            "buffer" : 0,
            "byteLength" : 4120,
            "byteOffset" : 43072
        },
        {
            "buffer" : 0,
            "byteLength" : 3516,
            "byteOffset" : 47192
        },
        {
            "buffer" : 0,
            "byteLength" : 7068,
            "byteOffset" : 50708
        },
        {
            "buffer" : 0,
            "byteLength" : 7068,
            "byteOffset" : 57776
        },
        {
            "buffer" : 0,
            "byteLength" : 4712,
            "byteOffset" : 64844
        },
        {
            "buffer" : 0,
            "byteLength" : 4944,
            "byteOffset" : 69556
        },
        {
            "buffer" : 0,
            "byteLength" : 1512,
            "byteOffset" : 74500
        },
        {
            "buffer" : 0,
            "byteLength" : 1512,
            "byteOffset" : 76012
        },
        {
            "buffer" : 0,
            "byteLength" : 1008,
            "byteOffset" : 77524
        },
        {
            "buffer" : 0,
            "byteLength" : 852,
            "byteOffset" : 78532
        },
        {
            "buffer" : 0,
            "byteLength" : 792,
            "byteOffset" : 79384
        },
        {
            "buffer" : 0,
            "byteLength" : 792,
            "byteOffset" : 80176
        },
        {
            "buffer" : 0,
            "byteLength" : 528,
            "byteOffset" : 80968
        },
        {
            "buffer" : 0,
            "byteLength" : 384,
            "byteOffset" : 81496
        },
        {
            "buffer" : 0,
            "byteLength" : 6360,
            "byteOffset" : 81880
        },
        {
            "buffer" : 0,
            "byteLength" : 6360,
            "byteOffset" : 88240
        },
        {
            "buffer" : 0,
            "byteLength" : 4240,
            "byteOffset" : 94600
        },
        {
            "buffer" : 0,
            "byteLength" : 2988,
            "byteOffset" : 98840
        },
        {
            "buffer" : 0,
            "byteLength" : 4512,
            "byteOffset" : 101828
        },
        {
            "buffer" : 0,
            "byteLength" : 4512,
            "byteOffset" : 106340
        },
        {
            "buffer" : 0,
            "byteLength" : 3008,
            "byteOffset" : 110852
        },
        {
            "buffer" : 0,
            "byteLength" : 1584,
            "byteOffset" : 113860
        },
        {
            "buffer" : 0,
            "byteLength" : 3288,
            "byteOffset" : 115444
        },
        {
            "buffer" : 0,
            "byteLength" : 3288,
            "byteOffset" : 118732
        },
        {
            "buffer" : 0,
            "byteLength" : 2192,
            "byteOffset" : 122020
        },
        {
            "buffer" : 0,
            "byteLength" : 1680,
            "byteOffset" : 124212
        }
    ],
    "buffers" : [
        {
            "byteLength" : 125892,
            "uri" : "data:application/octet-stream;base64,"
        }
    ]
}
